<svg width="1909" height="179" viewBox="0 0 1909 179" fill="none" xmlns="http://www.w3.org/2000/svg">
<path d="M150.74 1.1499H0.589844V33.1199H150.74V1.1499Z" fill="white"/>
<path d="M91.6495 25.3398H59.6895V175.49H91.6495V25.3398Z" fill="white"/>
<path d="M629.239 178.84C586.569 178.84 551.859 144.29 551.859 101.83V1.51H583.819V101.83C583.819 126.67 604.189 146.87 629.239 146.87C654.289 146.87 674.659 126.67 674.659 101.83V1H706.619V101.83C706.619 144.29 671.909 178.84 629.239 178.84Z" fill="white"/>
<path d="M876.63 1.1499H726.479V33.1199H876.63V1.1499Z" fill="white"/>
<path d="M817.529 25.3301H785.569V175.49H817.529V25.3301Z" fill="white"/>
<path d="M1177.27 177.43H1177.16L1168.53 177.41C1142.93 177.35 1122.09 157.98 1122.09 134.23V43.1798C1122.1 40.0798 1120.43 37.7698 1119.03 36.3698C1116.21 33.5598 1112.02 31.9598 1107.53 31.9598C1107.49 31.9598 1107.45 31.9598 1107.41 31.9598C1098.94 32.0098 1092.32 37.1498 1092.33 43.1898L1092.52 175.43L1060.55 175.48L1060.36 43.2398C1060.34 19.5598 1081.07 0.169766 1106.59 0.00976562H1107.31C1119.98 0.0597656 1132.72 4.91977 1141.57 13.7098C1149.64 21.7198 1154.08 32.1898 1154.08 43.1898V134.24C1154.07 140.3 1160.73 145.44 1168.61 145.45L1177.24 145.47H1177.28C1181.78 145.47 1185.98 143.86 1188.81 141.04C1190.2 139.66 1191.86 137.35 1191.86 134.27L1191.93 3.65977H1223.9L1223.83 134.28C1223.83 145.23 1219.41 155.68 1211.39 163.67C1202.62 172.42 1190.19 177.43 1177.29 177.44L1177.27 177.43Z" fill="white"/>
<path d="M404.2 1H373.1V175.48H404.2V1Z" fill="white"/>
<path d="M524.779 173.67H479.899C438.259 173.67 404.369 135.35 404.369 88.2498C404.369 41.1498 438.259 2.81982 479.909 2.81982H522.759V32.4498H479.909C454.609 32.4498 434.019 57.4798 434.019 88.2398C434.019 119 454.599 144.03 479.909 144.03H524.789V173.66L524.779 173.67Z" fill="white"/>
<path d="M341.48 175.49H311.49V97.6699C311.49 61.5299 286.41 32.1299 255.58 32.1299C224.75 32.1299 199.67 61.5299 199.67 97.6699V175.49H169.68V97.6699C169.68 44.9899 208.21 2.12988 255.58 2.12988C302.95 2.12988 341.48 44.9899 341.48 97.6699V175.49Z" fill="white"/>
<path d="M1031.69 73.5698H912.46V105.54H1031.69V73.5698Z" fill="white"/>
<path d="M1031.51 175.56H981.41C929.08 175.56 886.5 136.28 886.5 87.9897C886.5 39.6997 929.08 0.429688 981.41 0.429688H1030.09V32.3997H981.41C946.7 32.3997 918.46 57.3397 918.46 87.9997C918.46 118.66 946.7 143.6 981.41 143.6H1031.51V175.57V175.56Z" fill="white"/>
<path d="M1492.72 178.84C1443.53 178.84 1403.51 138.82 1403.51 89.6297C1403.51 40.4397 1443.53 0.429688 1492.72 0.429688C1541.91 0.429688 1581.93 40.4497 1581.93 89.6397C1581.93 138.83 1541.91 178.85 1492.72 178.85V178.84ZM1492.72 32.3897C1461.16 32.3897 1435.48 58.0697 1435.48 89.6297C1435.48 121.19 1461.16 146.87 1492.72 146.87C1524.28 146.87 1549.96 121.19 1549.96 89.6297C1549.96 58.0697 1524.28 32.3897 1492.72 32.3897Z" fill="white"/>
<path d="M1297.28 176.34C1283.69 176.34 1270.91 171.05 1261.28 161.45C1251.63 151.82 1246.31 139.01 1246.31 125.37V123.34C1246.31 95.2399 1269.18 72.3699 1297.28 72.3699H1336.58C1347.05 72.3699 1355.57 63.8499 1355.57 53.3799C1355.57 42.9099 1347.05 34.3799 1336.58 34.3799H1257.03V2.3999H1336.58C1364.68 2.3999 1387.54 25.2699 1387.54 53.3699C1387.54 81.4699 1364.68 104.33 1336.58 104.33H1297.28C1286.8 104.33 1278.28 112.85 1278.28 123.33V125.36C1278.28 130.45 1280.26 135.22 1283.86 138.81C1287.45 142.39 1292.21 144.36 1297.28 144.36H1297.32L1388.72 144.15L1388.79 176.12L1297.39 176.33H1297.27L1297.28 176.34Z" fill="white"/>
<path d="M1643.32 174.96C1629.74 174.96 1616.97 169.68 1607.35 160.08C1597.69 150.45 1592.37 137.63 1592.37 124V121.96C1592.37 93.8598 1615.24 70.9898 1643.34 70.9898H1682.64C1693.11 70.9898 1701.63 62.4698 1701.63 51.9998C1701.63 41.5298 1693.11 32.9998 1682.64 32.9998H1603.09V1.02979H1682.64C1710.74 1.02979 1733.6 23.8998 1733.6 51.9998C1733.6 80.0998 1710.74 102.96 1682.64 102.96H1643.34C1632.86 102.96 1624.34 111.48 1624.34 121.96V124C1624.34 129.09 1626.32 133.86 1629.92 137.45C1633.5 141.03 1638.27 142.99 1643.33 142.99H1643.38L1734.79 142.78L1734.86 174.75L1643.46 174.96H1643.32Z" fill="white"/>
<path d="M1816.64 153.01C1796.84 153.01 1778.21 145.31 1764.2 131.31C1750.16 117.29 1742.42 98.6396 1742.42 78.7896C1742.42 37.8596 1775.72 4.55957 1816.64 4.55957H1884.93V36.5296H1816.64C1793.34 36.5296 1774.39 55.4896 1774.39 78.7896C1774.39 90.0896 1778.79 100.71 1786.78 108.69C1794.76 116.66 1805.36 121.04 1816.64 121.04H1816.71L1908.64 120.9L1908.69 152.87L1816.76 153.01H1816.64Z" fill="white"/>
<path d="M1885.31 78.7896H1853.34V174.62H1885.31V78.7896Z" fill="white"/>
</svg>
